<svg xmlns="http://www.w3.org/2000/svg" width="54" height="54" viewBox="0 0 54 54"><g transform="translate(-195 -870)"><circle cx="27" cy="27" r="27" transform="translate(195 870)" fill="#fff"/><path d="M27,1A26.007,26.007,0,0,0,16.88,50.957,26.007,26.007,0,0,0,37.12,3.043,25.836,25.836,0,0,0,27,1m0-1A27,27,0,1,1,0,27,27,27,0,0,1,27,0Z" transform="translate(195 870)" fill="#bf9775"/><path d="M35.885,17.915l-.849-5.362a9.316,9.316,0,0,0-2.613-5.129l-3.85-3.85A9.283,9.283,0,0,0,23.46.969L18.067.115a9.273,9.273,0,0,0-5.662.9L7.546,3.487A9.3,9.3,0,0,0,3.483,7.552L1.015,12.395a9.324,9.324,0,0,0-.9,5.691l.849,5.363a9.316,9.316,0,0,0,2.613,5.129l3.85,3.85a9.287,9.287,0,0,0,5.112,2.605l5.393.854a9.278,9.278,0,0,0,5.662-.9l4.86-2.476a9.3,9.3,0,0,0,4.063-4.064l2.468-4.842a9.33,9.33,0,0,0,.9-5.692Zm-23.51,7.96a2.25,2.25,0,1,1,2.25-2.25A2.25,2.25,0,0,1,12.375,25.875Zm2.25-11.25a2.25,2.25,0,1,1,2.25-2.25A2.25,2.25,0,0,1,14.625,14.625Zm11.25,9a2.25,2.25,0,1,1,2.25-2.25A2.25,2.25,0,0,1,25.875,23.625Z" transform="translate(204.001 878.836)" fill="#bf9775"/></g></svg>