<svg xmlns="http://www.w3.org/2000/svg" width="54" height="54" viewBox="0 0 54 54"><g transform="translate(-263 -870)"><circle cx="27" cy="27" r="27" transform="translate(263 870)" fill="#fff"/><path d="M27,1A26.007,26.007,0,0,0,16.88,50.957,26.007,26.007,0,0,0,37.12,3.043,25.836,25.836,0,0,0,27,1m0-1A27,27,0,1,1,0,27,27,27,0,0,1,27,0Z" transform="translate(263 870)" fill="#bf9775"/><g transform="translate(212.436 675.185)"><path d="M62.85,220.743a8.659,8.659,0,0,1-3.686-.809.74.74,0,0,0-.722.049,7.733,7.733,0,0,1-5.359.728.945.945,0,0,0-.972.317c-2.839,3.166-9.191,3.4-10.653-1.2a9.073,9.073,0,0,1,2.61-10.047,8.2,8.2,0,0,1,2.465-3.824.336.336,0,0,0,.121-.442c-.438-1.48.7-2.93,1.863-3.715a11.211,11.211,0,0,1,1.549-.9c3.7-1.681,8.08-3.872,12-1.623a.627.627,0,0,0,.475.051,6.417,6.417,0,0,1,4.6-.237,9.65,9.65,0,0,1,2.963,1.513c2.716.778,5.411,1.515,7.617,3.415,2.953,2,3.315,7.259-.917,7.85-1.057.021-1.089.054-1.42,1.038a4.272,4.272,0,0,1-3.185,2.47C69.425,216.054,70.46,220.339,62.85,220.743ZM48.662,204.8a9.116,9.116,0,0,1,7.741,3.473A17.563,17.563,0,0,1,59.86,217.5c0,.084.113.189.2.244a6.555,6.555,0,0,0,8.8-2.717c.17-.336.347-.62.081-.98a22.481,22.481,0,0,0-1.252-5c-1.851-4.231-5.954-9.539-11.13-8.315C54.119,201.543,50.113,202.605,48.662,204.8Zm-2.124,4.679c3.673.522,5.341,5.338,6.129,8.462.047.185.1.276.3.3.348.048.69.138,1.033.212.8.273,3.245-.1,3.564-.881-.6-4.2-2.336-9.157-6.865-10.372C48.855,206.582,47.346,207.914,46.538,209.475Zm.083,11.493a5.171,5.171,0,0,0,3.609-1.414c.242-.225.408-.431.175-.764-.822-2.2-1.256-4.728-3.1-6.366C43.249,209.439,41.284,221.428,46.622,220.968Zm24.517-7.682a2.2,2.2,0,0,0,2.414-2.179c-.14-.417-.351-.816-.448-1.241-.877-4.165-3.82-9.26-8.685-8.943A18.546,18.546,0,0,1,71.138,213.287Zm2.086-9.351a22.94,22.94,0,0,1,2.069,5.336c.233.845,1.832-.012,2.226-.4a.7.7,0,0,0,.26-.841C77.157,205.919,75.129,204.7,73.224,203.936Z" transform="translate(17.13 10.978)" fill="#bf9775"/></g></g></svg>