<svg xmlns="http://www.w3.org/2000/svg" width="26" height="26" viewBox="0 0 26 26"><g transform="translate(-277.374 -410.374)"><circle cx="13" cy="13" r="13" transform="translate(277.374 410.374)" fill="#fff"/><path d="M13,1A12,12,0,0,0,4.515,21.485,12,12,0,1,0,21.485,4.515,11.921,11.921,0,0,0,13,1m0-1A13,13,0,1,1,0,13,13,13,0,0,1,13,0Z" transform="translate(277.374 410.374)" fill="#bf9775"/><path d="M12.6,4a4.172,4.172,0,0,1,2.95,7.123l-5.9,5.9a.5.5,0,0,1-.707,0l-5.9-5.9a4.172,4.172,0,1,1,5.9-5.9l.354.354.354-.354A4.144,4.144,0,0,1,12.6,4ZM9.3,15.96l5.547-5.547a3.172,3.172,0,1,0-4.486-4.486l-.708.708a.5.5,0,0,1-.707,0l-.708-.708a3.172,3.172,0,1,0-4.486,4.486Z" transform="translate(281.074 412.791)" fill="#bf9775"/></g></svg>