<svg xmlns="http://www.w3.org/2000/svg" width="18.478" height="15.941" viewBox="0 0 18.478 15.941"><path d="M17.471,11.03,13.792,5.524a.817.817,0,0,0-.7-.357.827.827,0,0,0-.7.357L8.719,11.03H4.7a.842.842,0,0,0-.84.84.986.986,0,0,0,.029.227l2.129,7.786a1.684,1.684,0,0,0,1.621,1.226H18.554a1.674,1.674,0,0,0,1.617-1.23L22.3,12.092a.749.749,0,0,0,.034-.223.842.842,0,0,0-.84-.84H17.471Zm-6.9,0,2.52-3.7,2.52,3.7Zm2.52,6.719a1.68,1.68,0,1,1,1.68-1.68A1.679,1.679,0,0,1,13.095,17.749Z" transform="translate(-3.856 -5.167)" fill="#fff"/></svg>